<?xml version="1.0" encoding="UTF-8" standalone="no"?>
<!DOCTYPE svg PUBLIC "-//W3C//DTD SVG 1.1//EN"
 "http://www.w3.org/Graphics/SVG/1.1/DTD/svg11.dtd">
<!-- Generated by graphviz version 2.38.0 (20140413.2041)
 -->
<!-- Title: g Pages: 1 -->
<svg width="1030pt" height="1259pt"
 viewBox="0.00 0.00 1030.00 1259.00" xmlns="http://www.w3.org/2000/svg" xmlns:xlink="http://www.w3.org/1999/xlink">
<g id="graph0" class="graph" transform="scale(1 1) rotate(0) translate(4 1255)">
<title>g</title>
<polygon fill="white" stroke="none" points="-4,4 -4,-1255 1026,-1255 1026,4 -4,4"/>
<!-- n1 -->
<g id="node1" class="node"><title>n1</title>
<polygon fill="#d0d0d0" stroke="white" points="187,-990 113,-990 113,-936 187,-936 187,-990"/>
<text text-anchor="middle" x="150" y="-959.3" font-family="Helvetica,sans-Serif" font-size="14.00">#account</text>
</g>
<!-- f0 -->
<g id="node30" class="node"><title>f0</title>
<polygon fill="dodgerblue" stroke="white" points="665,-768 336,-768 336,-726 665,-726 677,-747 665,-768"/>
<text text-anchor="middle" x="506.5" y="-743.3" font-family="Helvetica,sans-Serif" font-size="14.00" fill="white">bi_CertificateReportingAccountMonthEndLoad.dsql</text>
</g>
<!-- n1&#45;&gt;f0 -->
<g id="edge6" class="edge"><title>n1:e&#45;&gt;f0:w</title>
<path fill="none" stroke="cyan" stroke-width="2" d="M188,-963C240.286,-855 265.187,-858.011 300,-819 352.888,-759.734 259.577,-645.242 329.919,-738.926"/>
<polygon fill="cyan" stroke="cyan" stroke-width="2" points="327.188,-741.118 336,-747 332.78,-736.906 327.188,-741.118"/>
</g>
<!-- n1&#45;&gt;f0 -->
<g id="edge8" class="edge"><title>n1:e&#45;&gt;f0:w</title>
<path fill="none" stroke="cyan" stroke-width="2" d="M188,-963C240.286,-873 265.187,-876.011 300,-837 352.623,-778.031 260.509,-664.389 328.873,-739.167"/>
<polygon fill="cyan" stroke="cyan" stroke-width="2" points="326.681,-741.959 336,-747 331.859,-737.248 326.681,-741.959"/>
</g>
<!-- n1&#45;&gt;f0 -->
<g id="edge10" class="edge"><title>n1:e&#45;&gt;f0:w</title>
<path fill="none" stroke="cyan" stroke-width="2" d="M188,-963C240.286,-891 265.187,-894.011 300,-855 352.411,-796.269 261.25,-683.304 328.054,-740.104"/>
<polygon fill="cyan" stroke="cyan" stroke-width="2" points="326.153,-743.089 336,-747 330.741,-737.802 326.153,-743.089"/>
</g>
<!-- n1&#45;&gt;f0 -->
<g id="edge12" class="edge"><title>n1:e&#45;&gt;f0:w</title>
<path fill="none" stroke="cyan" stroke-width="2" d="M188,-963C240.286,-909 265.187,-912.011 300,-873 352.199,-814.507 261.985,-702.218 327.25,-741.451"/>
<polygon fill="cyan" stroke="cyan" stroke-width="2" points="325.681,-744.6 336,-747 329.43,-738.688 325.681,-744.6"/>
</g>
<!-- n1&#45;&gt;f0 -->
<g id="edge15" class="edge"><title>n1:e&#45;&gt;f0:w</title>
<path fill="none" stroke="cyan" stroke-width="2" d="M188,-963C240.286,-927 265.187,-930.011 300,-891 351.987,-832.745 262.717,-721.13 326.462,-743.202"/>
<polygon fill="cyan" stroke="cyan" stroke-width="2" points="325.415,-746.552 336,-747 328.004,-740.049 325.415,-746.552"/>
</g>
<!-- n1&#45;&gt;f0 -->
<g id="edge18" class="edge"><title>n1:e&#45;&gt;f0:w</title>
<path fill="none" stroke="cyan" stroke-width="2" d="M188,-963C240.286,-945 265.187,-948.011 300,-909 351.881,-850.864 263.08,-739.585 326.074,-745.387"/>
<polygon fill="cyan" stroke="cyan" stroke-width="2" points="325.568,-748.85 336,-747 326.691,-741.941 325.568,-748.85"/>
</g>
<!-- n1&#45;&gt;f0 -->
<g id="edge19" class="edge"><title>n1:e&#45;&gt;f0:w</title>
<path fill="none" stroke="cyan" stroke-width="2" d="M188,-963C240.286,-963 265.187,-966.011 300,-927 351.774,-868.982 263.443,-758.04 325.689,-747.767"/>
<polygon fill="cyan" stroke="cyan" stroke-width="2" points="326.287,-751.232 336,-747 325.768,-744.252 326.287,-751.232"/>
</g>
<!-- n1&#45;&gt;f0 -->
<g id="edge21" class="edge"><title>n1:e&#45;&gt;f0:w</title>
<path fill="none" stroke="cyan" stroke-width="2" d="M188,-963C240.286,-981 265.187,-984.011 300,-945 351.881,-886.864 263.08,-775.585 326.074,-750.024"/>
<polygon fill="cyan" stroke="cyan" stroke-width="2" points="327.454,-753.262 336,-747 325.414,-746.566 327.454,-753.262"/>
</g>
<!-- n1&#45;&gt;f0 -->
<g id="edge23" class="edge"><title>n1:e&#45;&gt;f0:w</title>
<path fill="none" stroke="cyan" stroke-width="2" d="M188,-963C240.286,-999 265.187,-1002.01 300,-963 352.093,-904.626 262.352,-792.674 326.854,-751.839"/>
<polygon fill="cyan" stroke="cyan" stroke-width="2" points="328.798,-754.771 336,-747 325.524,-748.583 328.798,-754.771"/>
</g>
<!-- n1&#45;&gt;f0 -->
<g id="edge26" class="edge"><title>n1:e&#45;&gt;f0:w</title>
<path fill="none" stroke="cyan" stroke-width="2" d="M188,-963C240.286,-1017 265.187,-1020.01 300,-981 352.305,-922.388 261.618,-809.761 327.65,-753.274"/>
<polygon fill="cyan" stroke="cyan" stroke-width="2" points="330.108,-755.805 336,-747 325.903,-750.209 330.108,-755.805"/>
</g>
<!-- n1&#45;&gt;f0 -->
<g id="edge28" class="edge"><title>n1:e&#45;&gt;f0:w</title>
<path fill="none" stroke="cyan" stroke-width="2" d="M188,-963C240.286,-1035 265.187,-1038.01 300,-999 352.517,-940.15 260.88,-826.847 328.461,-754.324"/>
<polygon fill="cyan" stroke="cyan" stroke-width="2" points="331.266,-756.479 336,-747 326.389,-751.458 331.266,-756.479"/>
</g>
<!-- n1&#45;&gt;f0 -->
<g id="edge31" class="edge"><title>n1:e&#45;&gt;f0:w</title>
<path fill="none" stroke="cyan" stroke-width="2" d="M188,-963C240.286,-1053 265.187,-1056.01 300,-1017 352.782,-957.853 259.951,-843.701 329.498,-754.715"/>
<polygon fill="cyan" stroke="cyan" stroke-width="2" points="332.231,-756.902 336,-747 326.879,-752.391 332.231,-756.902"/>
</g>
<!-- n1&#45;&gt;f0 -->
<g id="edge36" class="edge"><title>n1:e&#45;&gt;f0:w</title>
<path fill="none" stroke="cyan" stroke-width="2" d="M188,-963C240.286,-1071 265.187,-1074.01 300,-1035 352.942,-975.675 259.39,-861.012 330.131,-755.247"/>
<polygon fill="cyan" stroke="cyan" stroke-width="2" points="333.053,-757.177 336,-747 327.35,-753.118 333.053,-757.177"/>
</g>
<!-- n2 -->
<g id="node2" class="node"><title>n2</title>
<polygon fill="#d0d0d0" stroke="white" points="894.5,-1242 840.5,-1242 840.5,-1188 894.5,-1188 894.5,-1242"/>
<text text-anchor="middle" x="867.5" y="-1211.3" font-family="Helvetica,sans-Serif" font-size="14.00">#repo</text>
</g>
<!-- n2&#45;&gt;f0 -->
<g id="edge42" class="edge"><title>n2:e&#45;&gt;f0:w</title>
<path fill="none" stroke="cyan" stroke-width="2" d="M895.5,-1215C907.508,-1215 903.147,-1233.67 894.5,-1242 877.218,-1258.65 863.871,-1247.46 840.5,-1242 778.95,-1227.62 763.708,-1216.73 713,-1179 665.902,-1143.95 331.143,-807.804 327.513,-754.193"/>
<polygon fill="cyan" stroke="cyan" stroke-width="2" points="330.042,-756.612 334.5,-747 325.022,-751.734 330.042,-756.612"/>
</g>
<!-- n3 -->
<g id="node3" class="node"><title>n3</title>
<polygon fill="#d0d0d0" stroke="white" points="910.5,-1170 824.5,-1170 824.5,-1116 910.5,-1116 910.5,-1170"/>
<text text-anchor="middle" x="867.5" y="-1139.3" font-family="Helvetica,sans-Serif" font-size="14.00">#chargeoff</text>
</g>
<!-- n3&#45;&gt;f0 -->
<g id="edge34" class="edge"><title>n3:e&#45;&gt;f0:w</title>
<path fill="none" stroke="cyan" stroke-width="2" d="M911.5,-1143C942.137,-1134 936.757,-1190.52 824.5,-1161 769.453,-1146.52 759.372,-1131.01 713,-1098 530.729,-968.267 431.296,-967.179 335.5,-765 334.255,-762.372 332.85,-759.433 331.606,-756.616"/>
<polygon fill="cyan" stroke="cyan" stroke-width="2" points="334.969,-757.584 334.5,-747 328.266,-755.567 334.969,-757.584"/>
</g>
<!-- n3&#45;&gt;f0 -->
<g id="edge43" class="edge"><title>n3:e&#45;&gt;f0:w</title>
<path fill="none" stroke="cyan" stroke-width="2" d="M911.5,-1143C942.137,-1152 936.757,-1208.52 824.5,-1179 769.453,-1164.52 759.372,-1149.01 713,-1116 530.729,-986.267 431.296,-985.179 335.5,-783 331.724,-775.031 326.479,-764.205 328.714,-755.452"/>
<polygon fill="cyan" stroke="cyan" stroke-width="2" points="331.739,-757.229 334.5,-747 325.963,-753.275 331.739,-757.229"/>
</g>
<!-- n4 -->
<g id="node4" class="node"><title>n4</title>
<polygon fill="#d0d0d0" stroke="white" points="930,-1098 805,-1098 805,-1044 930,-1044 930,-1098"/>
<text text-anchor="middle" x="867.5" y="-1067.3" font-family="Helvetica,sans-Serif" font-size="14.00">#auctionsolddate</text>
</g>
<!-- n4&#45;&gt;f0 -->
<g id="edge44" class="edge"><title>n4:e&#45;&gt;f0:w</title>
<path fill="none" stroke="cyan" stroke-width="2" d="M931.5,-1071C943.508,-1071 939.147,-1089.67 930.5,-1098 920.459,-1107.68 818.321,-1102.12 805,-1098 757.66,-1083.34 753.826,-1063.09 713,-1035 544.963,-919.377 433.549,-952.862 335.5,-774 332.343,-768.241 328.749,-760.706 328.103,-755.06"/>
<polygon fill="cyan" stroke="cyan" stroke-width="2" points="331.025,-757.009 334.5,-747 325.542,-752.657 331.025,-757.009"/>
</g>
<!-- n5 -->
<g id="node5" class="node"><title>n5</title>
<polygon fill="#d0d0d0" stroke="white" points="912.5,-1026 822.5,-1026 822.5,-972 912.5,-972 912.5,-1026"/>
<text text-anchor="middle" x="867.5" y="-995.3" font-family="Helvetica,sans-Serif" font-size="14.00">#delinquent</text>
</g>
<!-- n5&#45;&gt;f0 -->
<g id="edge45" class="edge"><title>n5:e&#45;&gt;f0:w</title>
<path fill="none" stroke="cyan" stroke-width="2" d="M913.5,-999C925.508,-999 921.147,-1017.67 912.5,-1026 898.099,-1039.88 841.933,-1030.73 822.5,-1026 585.708,-968.365 466.015,-979.811 335.5,-774 331.883,-768.296 328.219,-760.466 327.843,-754.706"/>
<polygon fill="cyan" stroke="cyan" stroke-width="2" points="330.611,-756.855 334.5,-747 325.314,-752.279 330.611,-756.855"/>
</g>
<!-- n6 -->
<g id="node6" class="node"><title>n6</title>
<polygon fill="#d0d0d0" stroke="white" points="914,-954 821,-954 821,-900 914,-900 914,-954"/>
<text text-anchor="middle" x="867.5" y="-923.3" font-family="Helvetica,sans-Serif" font-size="14.00">#bankruptcy</text>
</g>
<!-- n6&#45;&gt;f0 -->
<g id="edge40" class="edge"><title>n6:e&#45;&gt;f0:w</title>
<path fill="none" stroke="cyan" stroke-width="2" d="M915.5,-927C927.508,-927 923.147,-945.668 914.5,-954 899.538,-968.418 841.451,-957.669 821,-954 594.486,-913.361 470.408,-960.44 335.5,-774 331.43,-768.376 327.718,-760.23 327.631,-754.359"/>
<polygon fill="cyan" stroke="cyan" stroke-width="2" points="330.235,-756.698 334.5,-747 325.118,-751.922 330.235,-756.698"/>
</g>
<!-- n7 -->
<g id="node7" class="node"><title>n7</title>
<polygon fill="#d0d0d0" stroke="white" points="906,-882 829,-882 829,-828 906,-828 906,-882"/>
<text text-anchor="middle" x="867.5" y="-851.3" font-family="Helvetica,sans-Serif" font-size="14.00">#buyback</text>
</g>
<!-- n7&#45;&gt;f0 -->
<g id="edge38" class="edge"><title>n7:e&#45;&gt;f0:w</title>
<path fill="none" stroke="cyan" stroke-width="2" d="M907.5,-855C919.508,-855 915.147,-873.668 906.5,-882 894.099,-893.95 846.122,-883.852 829,-882 605.777,-857.86 479.486,-946.276 335.5,-774 331.048,-768.673 327.396,-760.481 327.427,-754.518"/>
<polygon fill="cyan" stroke="cyan" stroke-width="2" points="330.197,-756.682 334.5,-747 325.098,-751.885 330.197,-756.682"/>
</g>
<!-- n8 -->
<g id="node8" class="node"><title>n8</title>
<polygon fill="#d0d0d0" stroke="white" points="907.5,-810 827.5,-810 827.5,-756 907.5,-756 907.5,-810"/>
<text text-anchor="middle" x="867.5" y="-779.3" font-family="Helvetica,sans-Serif" font-size="14.00">#lastdetail</text>
</g>
<!-- n8&#45;&gt;f0 -->
<g id="edge35" class="edge"><title>n8:e&#45;&gt;f0:w</title>
<path fill="none" stroke="cyan" stroke-width="2" d="M908.5,-783C920.508,-774 916.147,-792.668 907.5,-801 894.699,-813.336 845.266,-801.649 827.5,-801 608.395,-792.995 487.717,-922.801 335.5,-765 333.025,-762.434 330.873,-759.012 329.385,-755.704"/>
<polygon fill="cyan" stroke="cyan" stroke-width="2" points="332.451,-757.395 334.5,-747 326.416,-753.848 332.451,-757.395"/>
</g>
<!-- n8&#45;&gt;f0 -->
<g id="edge37" class="edge"><title>n8:e&#45;&gt;f0:w</title>
<path fill="none" stroke="cyan" stroke-width="2" d="M908.5,-783C920.508,-792 916.147,-810.668 907.5,-819 894.699,-831.336 845.266,-819.649 827.5,-819 608.395,-810.995 487.717,-940.801 335.5,-783 329.247,-776.518 325.057,-764.572 328.418,-755.207"/>
<polygon fill="cyan" stroke="cyan" stroke-width="2" points="331.358,-757.118 334.5,-747 325.734,-752.95 331.358,-757.118"/>
</g>
<!-- n9 -->
<g id="node9" class="node"><title>n9</title>
<polygon fill="#d0d0d0" stroke="white" points="919.5,-738 815.5,-738 815.5,-684 919.5,-684 919.5,-738"/>
<text text-anchor="middle" x="867.5" y="-707.3" font-family="Helvetica,sans-Serif" font-size="14.00">#repurchases</text>
</g>
<!-- n9&#45;&gt;f0 -->
<g id="edge39" class="edge"><title>n9:e&#45;&gt;f0:w</title>
<path fill="none" stroke="cyan" stroke-width="2" d="M920.5,-711C932.508,-711 927.963,-729.481 919.5,-738 903.314,-754.293 734.624,-739.265 713,-747 694.169,-753.736 695.974,-767.675 677,-774 533.011,-821.996 444.791,-879.318 335.5,-774 330.366,-769.053 326.743,-760.462 327.16,-754.298"/>
<polygon fill="cyan" stroke="cyan" stroke-width="2" points="329.876,-756.533 334.5,-747 324.941,-751.569 329.876,-756.533"/>
</g>
<!-- n10 -->
<g id="node10" class="node"><title>n10</title>
<polygon fill="#d0d0d0" stroke="white" points="912.5,-666 822.5,-666 822.5,-612 912.5,-612 912.5,-666"/>
<text text-anchor="middle" x="867.5" y="-635.3" font-family="Helvetica,sans-Serif" font-size="14.00">#cramdown</text>
</g>
<!-- n10&#45;&gt;f0 -->
<g id="edge41" class="edge"><title>n10:e&#45;&gt;f0:w</title>
<path fill="none" stroke="cyan" stroke-width="2" d="M913.5,-639C925.508,-639 920.957,-657.475 912.5,-666 896.873,-681.753 730.883,-661.864 713,-675 675.267,-702.717 715.348,-747.14 677,-774 552.684,-861.074 444.791,-879.318 335.5,-774 330.366,-769.053 326.743,-760.462 327.16,-754.298"/>
<polygon fill="cyan" stroke="cyan" stroke-width="2" points="329.876,-756.533 334.5,-747 324.941,-751.569 329.876,-756.533"/>
</g>
<!-- n11 -->
<g id="node11" class="node"><title>n11</title>
<polygon fill="#d0d0d0" stroke="white" points="909,-594 826,-594 826,-540 909,-540 909,-594"/>
<text text-anchor="middle" x="867.5" y="-563.3" font-family="Helvetica,sans-Serif" font-size="14.00">#ameinitial</text>
</g>
<!-- n11&#45;&gt;f0 -->
<g id="edge46" class="edge"><title>n11:e&#45;&gt;f0:w</title>
<path fill="none" stroke="cyan" stroke-width="2" d="M910.5,-567C922.508,-558 917.954,-576.472 909.5,-585 894.113,-600.522 729.653,-579.844 713,-594 653.825,-644.303 737.31,-716.065 677,-765 559.139,-860.631 444.791,-870.318 335.5,-765 332.865,-762.461 330.629,-758.963 329.132,-755.58"/>
<polygon fill="cyan" stroke="cyan" stroke-width="2" points="332.163,-757.334 334.5,-747 326.229,-753.621 332.163,-757.334"/>
</g>
<!-- n11&#45;&gt;f0 -->
<g id="edge47" class="edge"><title>n11:e&#45;&gt;f0:w</title>
<path fill="none" stroke="cyan" stroke-width="2" d="M910.5,-567C922.508,-576 917.954,-594.472 909.5,-603 894.113,-618.522 729.653,-597.844 713,-612 653.825,-662.303 737.31,-734.065 677,-783 559.139,-878.631 444.791,-888.318 335.5,-783 329.015,-776.751 324.94,-764.688 328.374,-755.25"/>
<polygon fill="cyan" stroke="cyan" stroke-width="2" points="331.349,-757.115 334.5,-747 325.728,-752.942 331.349,-757.115"/>
</g>
<!-- n12 -->
<g id="node12" class="node"><title>n12</title>
<polygon fill="#d0d0d0" stroke="white" points="933,-522 802,-522 802,-468 933,-468 933,-522"/>
<text text-anchor="middle" x="867.5" y="-491.3" font-family="Helvetica,sans-Serif" font-size="14.00">#ameintermediate</text>
</g>
<!-- n12&#45;&gt;f0 -->
<g id="edge48" class="edge"><title>n12:e&#45;&gt;f0:w</title>
<path fill="none" stroke="cyan" stroke-width="2" d="M934.5,-495C946.508,-495 941.975,-513.493 933.5,-522 916.194,-539.371 731.235,-514.607 713,-531 631.807,-603.991 759.665,-702.68 677,-774 562.082,-873.148 444.791,-879.318 335.5,-774 330.366,-769.053 326.743,-760.462 327.16,-754.298"/>
<polygon fill="cyan" stroke="cyan" stroke-width="2" points="329.876,-756.533 334.5,-747 324.941,-751.569 329.876,-756.533"/>
</g>
<!-- n13 -->
<g id="node13" class="node"><title>n13</title>
<polygon fill="#d0d0d0" stroke="white" points="915,-450 820,-450 820,-396 915,-396 915,-450"/>
<text text-anchor="middle" x="867.5" y="-419.3" font-family="Helvetica,sans-Serif" font-size="14.00">#defaultdate</text>
</g>
<!-- n13&#45;&gt;f0 -->
<g id="edge49" class="edge"><title>n13:e&#45;&gt;f0:w</title>
<path fill="none" stroke="cyan" stroke-width="2" d="M916.5,-423C928.508,-423 923.96,-441.478 915.5,-450 899.633,-465.984 729.468,-443.636 713,-459 609.965,-555.124 782.144,-680.188 677,-774 563.748,-875.046 444.791,-879.318 335.5,-774 330.366,-769.053 326.743,-760.462 327.16,-754.298"/>
<polygon fill="cyan" stroke="cyan" stroke-width="2" points="329.876,-756.533 334.5,-747 324.941,-751.569 329.876,-756.533"/>
</g>
<!-- n14 -->
<g id="node14" class="node"><title>n14</title>
<polygon fill="#d0d0d0" stroke="white" points="906.5,-378 828.5,-378 828.5,-324 906.5,-324 906.5,-378"/>
<text text-anchor="middle" x="867.5" y="-347.3" font-family="Helvetica,sans-Serif" font-size="14.00">#amefinal</text>
</g>
<!-- n14&#45;&gt;f0 -->
<g id="edge50" class="edge"><title>n14:e&#45;&gt;f0:w</title>
<path fill="none" stroke="cyan" stroke-width="2" d="M907.5,-351C919.508,-342 914.951,-360.469 906.5,-369 891.353,-384.291 728.567,-363.137 713,-378 650.53,-437.644 740.84,-706.823 677,-765 564.817,-867.232 444.791,-870.318 335.5,-765 332.865,-762.461 330.629,-758.963 329.132,-755.58"/>
<polygon fill="cyan" stroke="cyan" stroke-width="2" points="332.163,-757.334 334.5,-747 326.229,-753.621 332.163,-757.334"/>
</g>
<!-- n14&#45;&gt;f0 -->
<g id="edge51" class="edge"><title>n14:e&#45;&gt;f0:w</title>
<path fill="none" stroke="cyan" stroke-width="2" d="M907.5,-351C919.508,-360 914.951,-378.469 906.5,-387 891.353,-402.291 728.567,-381.137 713,-396 650.53,-455.644 740.84,-724.823 677,-783 564.817,-885.232 444.791,-888.318 335.5,-783 329.015,-776.751 324.94,-764.688 328.374,-755.25"/>
<polygon fill="cyan" stroke="cyan" stroke-width="2" points="331.349,-757.115 334.5,-747 325.728,-752.942 331.349,-757.115"/>
</g>
<!-- n15 -->
<g id="node15" class="node"><title>n15</title>
<polygon fill="#d0d0d0" stroke="white" points="1022,-306 713,-306 713,-252 1022,-252 1022,-306"/>
<text text-anchor="middle" x="867.5" y="-275.3" font-family="Helvetica,sans-Serif" font-size="14.00">dbo.certificatereportingaccountmonthend_new</text>
</g>
<!-- n16 -->
<g id="node16" class="node"><title>n16</title>
<polygon fill="#d0d0d0" stroke="white" points="1005,-234 730,-234 730,-180 1005,-180 1005,-234"/>
<text text-anchor="middle" x="867.5" y="-203.3" font-family="Helvetica,sans-Serif" font-size="14.00">dbo.certificatereportingaccountmonthend</text>
</g>
<!-- n17 -->
<g id="node17" class="node"><title>n17</title>
<polygon fill="#d0d0d0" stroke="white" points="270,-918 30,-918 30,-864 270,-864 270,-918"/>
<text text-anchor="middle" x="150" y="-887.3" font-family="Helvetica,sans-Serif" font-size="14.00">dbo.certificatereportingaccountdate</text>
</g>
<!-- n17&#45;&gt;f0 -->
<g id="edge1" class="edge"><title>n17:e&#45;&gt;f0:w</title>
<path fill="none" stroke="cyan" stroke-width="2" d="M271,-891C337.515,-891 273.333,-761.787 326.064,-748.159"/>
<polygon fill="cyan" stroke="cyan" stroke-width="2" points="326.473,-751.635 336,-747 325.662,-744.682 326.473,-751.635"/>
</g>
<!-- n18 -->
<g id="node18" class="node"><title>n18</title>
<polygon fill="#d0d0d0" stroke="white" points="300,-846 0,-846 0,-792 300,-792 300,-846"/>
<text text-anchor="middle" x="150" y="-815.3" font-family="Helvetica,sans-Serif" font-size="14.00">dbo.certificatereportinglastaccountplacement</text>
</g>
<!-- n18&#45;&gt;f0 -->
<g id="edge2" class="edge"><title>n18:e&#45;&gt;f0:w</title>
<path fill="none" stroke="cyan" stroke-width="2" d="M300,-819C331.584,-819 307.576,-762.886 326.131,-749.735"/>
<polygon fill="cyan" stroke="cyan" stroke-width="2" points="327.298,-753.043 336,-747 325.428,-746.297 327.298,-753.043"/>
</g>
<!-- n19 -->
<g id="node19" class="node"><title>n19</title>
<polygon fill="#d0d0d0" stroke="white" points="228,-774 72,-774 72,-720 228,-720 228,-774"/>
<text text-anchor="middle" x="150" y="-743.3" font-family="Helvetica,sans-Serif" font-size="14.00">dbo.accountdailyvalue</text>
</g>
<!-- n19&#45;&gt;f0 -->
<g id="edge3" class="edge"><title>n19:e&#45;&gt;f0:w</title>
<path fill="none" stroke="cyan" stroke-width="2" d="M229,-747C273.955,-704.461 287.037,-702.135 328.506,-740.021"/>
<polygon fill="cyan" stroke="cyan" stroke-width="2" points="326.297,-742.746 336,-747 331.067,-737.623 326.297,-742.746"/>
</g>
<!-- n19&#45;&gt;f0 -->
<g id="edge4" class="edge"><title>n19:e&#45;&gt;f0:w</title>
<path fill="none" stroke="cyan" stroke-width="2" d="M229,-747C273.49,-721.74 286.764,-720.112 327.23,-742.116"/>
<polygon fill="cyan" stroke="cyan" stroke-width="2" points="325.561,-745.192 336,-747 328.966,-739.077 325.561,-745.192"/>
</g>
<!-- n19&#45;&gt;f0 -->
<g id="edge20" class="edge"><title>n19:e&#45;&gt;f0:w</title>
<path fill="none" stroke="cyan" stroke-width="2" d="M229,-747C273.026,-738.668 286.483,-738.05 325.972,-745.145"/>
<polygon fill="cyan" stroke="cyan" stroke-width="2" points="325.53,-748.622 336,-747 326.804,-741.739 325.53,-748.622"/>
</g>
<!-- n19&#45;&gt;f0 -->
<g id="edge22" class="edge"><title>n19:e&#45;&gt;f0:w</title>
<path fill="none" stroke="cyan" stroke-width="2" d="M229,-747C273.026,-755.332 286.483,-755.95 325.972,-748.855"/>
<polygon fill="cyan" stroke="cyan" stroke-width="2" points="326.804,-752.261 336,-747 325.53,-745.378 326.804,-752.261"/>
</g>
<!-- n19&#45;&gt;f0 -->
<g id="edge25" class="edge"><title>n19:e&#45;&gt;f0:w</title>
<path fill="none" stroke="cyan" stroke-width="2" d="M229,-747C273.49,-772.26 286.764,-773.888 327.23,-751.884"/>
<polygon fill="cyan" stroke="cyan" stroke-width="2" points="328.966,-754.923 336,-747 325.561,-748.808 328.966,-754.923"/>
</g>
<!-- n19&#45;&gt;f0 -->
<g id="edge30" class="edge"><title>n19:e&#45;&gt;f0:w</title>
<path fill="none" stroke="cyan" stroke-width="2" d="M229,-747C273.955,-789.539 287.037,-791.865 328.506,-753.979"/>
<polygon fill="cyan" stroke="cyan" stroke-width="2" points="331.067,-756.377 336,-747 326.297,-751.254 331.067,-756.377"/>
</g>
<!-- n20 -->
<g id="node20" class="node"><title>n20</title>
<polygon fill="#d0d0d0" stroke="white" points="197.5,-702 102.5,-702 102.5,-648 197.5,-648 197.5,-702"/>
<text text-anchor="middle" x="150" y="-671.3" font-family="Helvetica,sans-Serif" font-size="14.00">dbo.account</text>
</g>
<!-- n20&#45;&gt;f0 -->
<g id="edge5" class="edge"><title>n20:e&#45;&gt;f0:w</title>
<path fill="none" stroke="cyan" stroke-width="2" d="M199,-675C246.655,-675 259.723,-685.529 300,-711 315.538,-720.826 314.655,-738.451 325.914,-744.714"/>
<polygon fill="cyan" stroke="cyan" stroke-width="2" points="325.474,-748.203 336,-747 327.021,-741.376 325.474,-748.203"/>
</g>
<!-- n21 -->
<g id="node21" class="node"><title>n21</title>
<polygon fill="#d0d0d0" stroke="white" points="240,-630 60,-630 60,-576 240,-576 240,-630"/>
<text text-anchor="middle" x="150" y="-599.3" font-family="Helvetica,sans-Serif" font-size="14.00">dbo.accountrepoinventory</text>
</g>
<!-- n21&#45;&gt;f0 -->
<g id="edge7" class="edge"><title>n21:e&#45;&gt;f0:w</title>
<path fill="none" stroke="cyan" stroke-width="2" d="M241,-603C271.718,-603 280.868,-614.967 300,-639 329.051,-675.492 292.134,-736.486 325.829,-745.794"/>
<polygon fill="cyan" stroke="cyan" stroke-width="2" points="325.657,-749.298 336,-747 326.482,-742.346 325.657,-749.298"/>
</g>
<!-- n22 -->
<g id="node22" class="node"><title>n22</title>
<polygon fill="#d0d0d0" stroke="white" points="236,-558 64,-558 64,-504 236,-504 236,-558"/>
<text text-anchor="middle" x="150" y="-527.3" font-family="Helvetica,sans-Serif" font-size="14.00">dbo.chargeoffyearmonth</text>
</g>
<!-- n22&#45;&gt;f0 -->
<g id="edge9" class="edge"><title>n22:e&#45;&gt;f0:w</title>
<path fill="none" stroke="cyan" stroke-width="2" d="M237,-531C269.249,-531 281.144,-540.838 300,-567 345.467,-630.082 262.852,-736.434 325.647,-746.266"/>
<polygon fill="cyan" stroke="cyan" stroke-width="2" points="325.778,-749.784 336,-747 326.272,-742.802 325.778,-749.784"/>
</g>
<!-- n23 -->
<g id="node23" class="node"><title>n23</title>
<polygon fill="#d0d0d0" stroke="white" points="236,-486 64,-486 64,-432 236,-432 236,-486"/>
<text text-anchor="middle" x="150" y="-455.3" font-family="Helvetica,sans-Serif" font-size="14.00">accountauctionproceeds</text>
</g>
<!-- n23&#45;&gt;f0 -->
<g id="edge11" class="edge"><title>n23:e&#45;&gt;f0:w</title>
<path fill="none" stroke="cyan" stroke-width="2" d="M237,-459C269.249,-450 281.877,-459.325 300,-486 329.803,-529.866 285.648,-712.968 326.623,-743.1"/>
<polygon fill="cyan" stroke="cyan" stroke-width="2" points="325.423,-746.391 336,-747 328.111,-739.928 325.423,-746.391"/>
</g>
<!-- n23&#45;&gt;f0 -->
<g id="edge13" class="edge"><title>n23:e&#45;&gt;f0:w</title>
<path fill="none" stroke="cyan" stroke-width="2" d="M237,-459C269.249,-468 281.877,-477.325 300,-504 329.555,-547.501 286.378,-727.926 325.616,-745.851"/>
<polygon fill="cyan" stroke="cyan" stroke-width="2" points="325.676,-749.379 336,-747 326.446,-742.421 325.676,-749.379"/>
</g>
<!-- n24 -->
<g id="node24" class="node"><title>n24</title>
<polygon fill="#d0d0d0" stroke="white" points="221.5,-414 78.5,-414 78.5,-360 221.5,-360 221.5,-414"/>
<text text-anchor="middle" x="150" y="-383.3" font-family="Helvetica,sans-Serif" font-size="14.00">transactionmonetary</text>
</g>
<!-- n24&#45;&gt;f0 -->
<g id="edge14" class="edge"><title>n24:e&#45;&gt;f0:w</title>
<path fill="none" stroke="cyan" stroke-width="2" d="M223,-387C260.778,-387 277.987,-392.299 300,-423 340.07,-478.883 271.234,-720.605 326.097,-745.011"/>
<polygon fill="cyan" stroke="cyan" stroke-width="2" points="325.507,-748.462 336,-747 326.885,-741.599 325.507,-748.462"/>
</g>
<!-- n25 -->
<g id="node25" class="node"><title>n25</title>
<polygon fill="#d0d0d0" stroke="white" points="203,-342 97,-342 97,-288 203,-288 203,-342"/>
<text text-anchor="middle" x="150" y="-311.3" font-family="Helvetica,sans-Serif" font-size="14.00">vehicleauction</text>
</g>
<!-- n25&#45;&gt;f0 -->
<g id="edge16" class="edge"><title>n25:e&#45;&gt;f0:w</title>
<path fill="none" stroke="cyan" stroke-width="2" d="M204,-315C249.568,-306 272.374,-305.761 300,-342 324.954,-374.734 296.311,-690.185 328.004,-740.438"/>
<polygon fill="cyan" stroke="cyan" stroke-width="2" points="326.049,-743.362 336,-747 330.49,-737.951 326.049,-743.362"/>
</g>
<!-- n25&#45;&gt;f0 -->
<g id="edge17" class="edge"><title>n25:e&#45;&gt;f0:w</title>
<path fill="none" stroke="cyan" stroke-width="2" d="M204,-315C249.568,-324 272.374,-323.761 300,-360 324.64,-392.323 297.023,-700.294 326.836,-742.404"/>
<polygon fill="cyan" stroke="cyan" stroke-width="2" points="325.492,-745.645 336,-747 328.63,-739.388 325.492,-745.645"/>
</g>
<!-- n26 -->
<g id="node26" class="node"><title>n26</title>
<polygon fill="#d0d0d0" stroke="white" points="223.5,-270 76.5,-270 76.5,-216 223.5,-216 223.5,-270"/>
<text text-anchor="middle" x="150" y="-239.3" font-family="Helvetica,sans-Serif" font-size="14.00">dbo.accountbuyback</text>
</g>
<!-- n26&#45;&gt;f0 -->
<g id="edge24" class="edge"><title>n26:e&#45;&gt;f0:w</title>
<path fill="none" stroke="cyan" stroke-width="2" d="M225,-243C261.974,-243 279.122,-248.484 300,-279 327.551,-319.269 289.413,-693.807 327.088,-741.92"/>
<polygon fill="cyan" stroke="cyan" stroke-width="2" points="325.579,-745.089 336,-747 329.045,-739.007 325.579,-745.089"/>
</g>
<!-- n27 -->
<g id="node27" class="node"><title>n27</title>
<polygon fill="#d0d0d0" stroke="white" points="248.5,-198 51.5,-198 51.5,-144 248.5,-144 248.5,-198"/>
<text text-anchor="middle" x="150" y="-167.3" font-family="Helvetica,sans-Serif" font-size="14.00">dbo.certificatereportingdetail</text>
</g>
<!-- n27&#45;&gt;f0 -->
<g id="edge27" class="edge"><title>n27:e&#45;&gt;f0:w</title>
<path fill="none" stroke="cyan" stroke-width="2" d="M250,-171C277.383,-171 286.712,-183.057 300,-207 327.528,-256.6 281.642,-693.179 326.838,-742.476"/>
<polygon fill="cyan" stroke="cyan" stroke-width="2" points="325.484,-745.711 336,-747 328.583,-739.434 325.484,-745.711"/>
</g>
<!-- n28 -->
<g id="node28" class="node"><title>n28</title>
<polygon fill="#d0d0d0" stroke="white" points="234,-126 66,-126 66,-72 234,-72 234,-126"/>
<text text-anchor="middle" x="150" y="-95.3" font-family="Helvetica,sans-Serif" font-size="14.00">certificatereportingdetail</text>
</g>
<!-- n28&#45;&gt;f0 -->
<g id="edge29" class="edge"><title>n28:e&#45;&gt;f0:w</title>
<path fill="none" stroke="cyan" stroke-width="2" d="M235,-99C268.024,-99 282.406,-107.053 300,-135 334.449,-189.718 274.56,-691.979 326.647,-742.849"/>
<polygon fill="cyan" stroke="cyan" stroke-width="2" points="325.44,-746.142 336,-747 328.28,-739.744 325.44,-746.142"/>
</g>
<!-- n29 -->
<g id="node29" class="node"><title>n29</title>
<polygon fill="#d0d0d0" stroke="white" points="230,-54 70,-54 70,-0 230,-0 230,-54"/>
<text text-anchor="middle" x="150" y="-23.3" font-family="Helvetica,sans-Serif" font-size="14.00">dbo.accountcramdown</text>
</g>
<!-- n29&#45;&gt;f0 -->
<g id="edge32" class="edge"><title>n29:e&#45;&gt;f0:w</title>
<path fill="none" stroke="cyan" stroke-width="2" d="M231,-27C265.59,-18 281.298,-24.9022 300,-54 339.381,-115.271 266.652,-685.747 327.039,-742.548"/>
<polygon fill="cyan" stroke="cyan" stroke-width="2" points="325.487,-745.685 336,-747 328.601,-739.416 325.487,-745.685"/>
</g>
<!-- n29&#45;&gt;f0 -->
<g id="edge33" class="edge"><title>n29:e&#45;&gt;f0:w</title>
<path fill="none" stroke="cyan" stroke-width="2" d="M231,-27C265.59,-36 281.298,-42.9022 300,-72 339.22,-133.021 267.243,-699.099 326.306,-744.242"/>
<polygon fill="cyan" stroke="cyan" stroke-width="2" points="325.424,-747.629 336,-747 327.34,-740.897 325.424,-747.629"/>
</g>
<!-- f0&#45;&gt;n1 -->
<g id="edge52" class="edge"><title>f0:e&#45;&gt;n1:w</title>
<path fill="none" stroke="green" stroke-width="2" d="M678.5,-747C690.508,-747 684.246,-764.066 677.5,-774 543.69,-971.066 420.096,-940.949 187,-990 154.816,-996.773 136.682,-1012.82 113,-990 107.866,-985.053 104.243,-976.462 104.66,-970.298"/>
<polygon fill="green" stroke="green" stroke-width="2" points="107.376,-972.533 112,-963 102.441,-967.569 107.376,-972.533"/>
</g>
<!-- f0&#45;&gt;n2 -->
<g id="edge53" class="edge"><title>f0:e&#45;&gt;n2:w</title>
<path fill="none" stroke="green" stroke-width="2" d="M677,-747C725.166,-747 682.402,-1141.8 713,-1179 747.885,-1221.41 777.279,-1215.91 829.178,-1215.09"/>
<polygon fill="green" stroke="green" stroke-width="2" points="829.53,-1218.58 839.5,-1215 829.471,-1211.58 829.53,-1218.58"/>
</g>
<!-- f0&#45;&gt;n3 -->
<g id="edge54" class="edge"><title>f0:e&#45;&gt;n3:w</title>
<path fill="none" stroke="green" stroke-width="2" d="M677,-747C757.399,-747 662.586,-1044.37 713,-1107 743.174,-1144.49 768.203,-1143.37 813.251,-1143.04"/>
<polygon fill="green" stroke="green" stroke-width="2" points="813.515,-1146.54 823.5,-1143 813.485,-1139.54 813.515,-1146.54"/>
</g>
<!-- f0&#45;&gt;n4 -->
<g id="edge55" class="edge"><title>f0:e&#45;&gt;n4:w</title>
<path fill="none" stroke="green" stroke-width="2" d="M677,-747C741.498,-747 673.543,-983.979 713,-1035 737.309,-1066.43 756.772,-1070.49 793.287,-1070.95"/>
<polygon fill="green" stroke="green" stroke-width="2" points="793.482,-1074.45 803.5,-1071 793.518,-1067.45 793.482,-1074.45"/>
</g>
<!-- f0&#45;&gt;n5 -->
<g id="edge56" class="edge"><title>f0:e&#45;&gt;n5:w</title>
<path fill="none" stroke="green" stroke-width="2" d="M677,-747C725.662,-747 681.362,-926.026 713,-963 743.775,-998.965 767.282,-999.163 811.436,-999.023"/>
<polygon fill="green" stroke="green" stroke-width="2" points="811.508,-1002.52 821.5,-999 811.492,-995.522 811.508,-1002.52"/>
</g>
<!-- f0&#45;&gt;n6 -->
<g id="edge57" class="edge"><title>f0:e&#45;&gt;n6:w</title>
<path fill="none" stroke="green" stroke-width="2" d="M677,-747C742.97,-747 668.279,-842.502 713,-891 744.489,-925.149 766.293,-926.918 809.352,-926.998"/>
<polygon fill="green" stroke="green" stroke-width="2" points="809.499,-930.498 819.5,-927 809.501,-923.498 809.499,-930.498"/>
</g>
<!-- f0&#45;&gt;n7 -->
<g id="edge58" class="edge"><title>f0:e&#45;&gt;n7:w</title>
<path fill="none" stroke="green" stroke-width="2" d="M677,-747C712.777,-747 685.772,-795.791 713,-819 750.902,-851.307 771.336,-854.668 817.291,-854.972"/>
<polygon fill="green" stroke="green" stroke-width="2" points="817.49,-858.473 827.5,-855 817.51,-851.473 817.49,-858.473"/>
</g>
<!-- f0&#45;&gt;n8 -->
<g id="edge59" class="edge"><title>f0:e&#45;&gt;n8:w</title>
<path fill="none" stroke="green" stroke-width="2" d="M677,-747C741.873,-747 756.712,-779.437 816.503,-782.731"/>
<polygon fill="green" stroke="green" stroke-width="2" points="816.409,-786.23 826.5,-783 816.598,-779.232 816.409,-786.23"/>
</g>
<!-- f0&#45;&gt;n8 -->
<g id="edge61" class="edge"><title>f0:e&#45;&gt;n8:w</title>
<path fill="none" stroke="green" stroke-width="2" d="M677,-747C741.873,-747 756.712,-779.437 816.503,-782.731"/>
<polygon fill="green" stroke="green" stroke-width="2" points="816.409,-786.23 826.5,-783 816.598,-779.232 816.409,-786.23"/>
</g>
<!-- f0&#45;&gt;n9 -->
<g id="edge60" class="edge"><title>f0:e&#45;&gt;n9:w</title>
<path fill="none" stroke="green" stroke-width="2" d="M677,-747C736.593,-747 749.898,-714.963 804.248,-711.333"/>
<polygon fill="green" stroke="green" stroke-width="2" points="804.619,-714.823 814.5,-711 804.391,-707.827 804.619,-714.823"/>
</g>
<!-- f0&#45;&gt;n9 -->
<g id="edge62" class="edge"><title>f0:e&#45;&gt;n9:w</title>
<path fill="none" stroke="green" stroke-width="2" d="M677,-747C736.593,-747 749.898,-714.963 804.248,-711.333"/>
<polygon fill="green" stroke="green" stroke-width="2" points="804.619,-714.823 814.5,-711 804.391,-707.827 804.619,-714.823"/>
</g>
<!-- f0&#45;&gt;n10 -->
<g id="edge63" class="edge"><title>f0:e&#45;&gt;n10:w</title>
<path fill="none" stroke="green" stroke-width="2" d="M677,-747C712.777,-747 685.956,-698.423 713,-675 748.705,-644.076 767.886,-639.536 811.233,-639.05"/>
<polygon fill="green" stroke="green" stroke-width="2" points="811.517,-642.549 821.5,-639 811.483,-635.549 811.517,-642.549"/>
</g>
<!-- f0&#45;&gt;n11 -->
<g id="edge64" class="edge"><title>f0:e&#45;&gt;n11:w</title>
<path fill="none" stroke="green" stroke-width="2" d="M677,-747C742.97,-747 667.949,-651.191 713,-603 746.201,-567.485 769.205,-566.906 814.487,-566.985"/>
<polygon fill="green" stroke="green" stroke-width="2" points="814.495,-570.485 824.5,-567 814.505,-563.485 814.495,-570.485"/>
</g>
<!-- f0&#45;&gt;n12 -->
<g id="edge65" class="edge"><title>f0:e&#45;&gt;n12:w</title>
<path fill="none" stroke="green" stroke-width="2" d="M677,-747C725.662,-747 682.674,-569.057 713,-531 736.954,-500.939 755.09,-495.755 790.145,-495.086"/>
<polygon fill="green" stroke="green" stroke-width="2" points="790.529,-498.583 800.5,-495 790.471,-491.583 790.529,-498.583"/>
</g>
<!-- f0&#45;&gt;n13 -->
<g id="edge66" class="edge"><title>f0:e&#45;&gt;n13:w</title>
<path fill="none" stroke="green" stroke-width="2" d="M677,-747C741.498,-747 672.286,-509.024 713,-459 742.075,-423.276 765.453,-422.861 808.407,-422.979"/>
<polygon fill="green" stroke="green" stroke-width="2" points="808.493,-426.479 818.5,-423 808.507,-419.479 808.493,-426.479"/>
</g>
<!-- f0&#45;&gt;n14 -->
<g id="edge67" class="edge"><title>f0:e&#45;&gt;n14:w</title>
<path fill="none" stroke="green" stroke-width="2" d="M677,-747C757.399,-747 662.263,-449.368 713,-387 744.494,-348.286 770.586,-350.501 817.499,-350.947"/>
<polygon fill="green" stroke="green" stroke-width="2" points="817.482,-354.447 827.5,-351 817.519,-347.447 817.482,-354.447"/>
</g>
<!-- f0&#45;&gt;n15 -->
<g id="edge68" class="edge"><title>f0:e&#45;&gt;n15:w</title>
<path fill="none" stroke="green" stroke-width="2" d="M677,-747C777.64,-747 620.487,-311.328 703.002,-280.695"/>
<polygon fill="green" stroke="green" stroke-width="2" points="703.726,-284.122 713,-279 702.556,-277.22 703.726,-284.122"/>
</g>
<!-- f0&#45;&gt;n16 -->
<g id="edge69" class="edge"><title>f0:e&#45;&gt;n16:w</title>
<path fill="none" stroke="green" stroke-width="2" d="M677,-747C733.858,-747 675.634,-266.439 719.456,-212.001"/>
<polygon fill="green" stroke="green" stroke-width="2" points="721.442,-214.902 728.5,-207 718.055,-208.776 721.442,-214.902"/>
</g>
</g>
</svg>
