<?xml version="1.0" encoding="UTF-8" standalone="no"?>
<!DOCTYPE svg PUBLIC "-//W3C//DTD SVG 1.1//EN"
 "http://www.w3.org/Graphics/SVG/1.1/DTD/svg11.dtd">
<!-- Generated by graphviz version 2.38.0 (20140413.2041)
 -->
<!-- Title: g Pages: 1 -->
<svg width="1566pt" height="257pt"
 viewBox="0.00 0.00 1566.00 257.00" xmlns="http://www.w3.org/2000/svg" xmlns:xlink="http://www.w3.org/1999/xlink">
<g id="graph0" class="graph" transform="scale(1 1) rotate(0) translate(4 253)">
<title>g</title>
<polygon fill="white" stroke="none" points="-4,4 -4,-253 1562,-253 1562,4 -4,4"/>
<!-- node_1 -->
<g id="node1" class="node"><title>node_1</title>
<path fill="none" stroke="black" d="M14.5,-196C14.5,-196 168.5,-196 168.5,-196 174.5,-196 180.5,-202 180.5,-208 180.5,-208 180.5,-220 180.5,-220 180.5,-226 174.5,-232 168.5,-232 168.5,-232 14.5,-232 14.5,-232 8.5,-232 2.5,-226 2.5,-220 2.5,-220 2.5,-208 2.5,-208 2.5,-202 8.5,-196 14.5,-196"/>
<text text-anchor="middle" x="12.5" y="-210.3" font-family="Times New Roman,serif" font-size="14.00"> </text>
<polyline fill="none" stroke="black" points="22.5,-196 22.5,-232 "/>
<text text-anchor="middle" x="101.5" y="-210.3" font-family="Times New Roman,serif" font-size="14.00">[someschema.sometable]</text>
</g>
<!-- file_0 -->
<g id="node15" class="node"><title>file_0</title>
<path fill="none" stroke="black" d="M12,-73.5C12,-73.5 145,-73.5 145,-73.5 151,-73.5 157,-79.5 157,-85.5 157,-85.5 157,-130.5 157,-130.5 157,-136.5 151,-142.5 145,-142.5 145,-142.5 12,-142.5 12,-142.5 6,-142.5 0,-136.5 0,-130.5 0,-130.5 0,-85.5 0,-85.5 0,-79.5 6,-73.5 12,-73.5"/>
<text text-anchor="middle" x="13" y="-104.3" font-family="Times New Roman,serif" font-size="14.00">R</text>
<polyline fill="none" stroke="black" points="26,-73.5 26,-142.5 "/>
<text text-anchor="middle" x="78.5" y="-104.3" font-family="Times New Roman,serif" font-size="14.00">basic_select.sql</text>
<polyline fill="none" stroke="black" points="131,-73.5 131,-142.5 "/>
<text text-anchor="middle" x="144" y="-127.3" font-family="Times New Roman,serif" font-size="14.00">C</text>
<polyline fill="none" stroke="black" points="131,-119.5 157,-119.5 "/>
<text text-anchor="middle" x="144" y="-104.3" font-family="Times New Roman,serif" font-size="14.00">U</text>
<polyline fill="none" stroke="black" points="131,-96.5 157,-96.5 "/>
<text text-anchor="middle" x="144" y="-81.3" font-family="Times New Roman,serif" font-size="14.00">D</text>
</g>
<!-- node_1&#45;&#45;file_0 -->
<g id="edge1" class="edge"><title>node_1:io&#45;&#45;file_0:r</title>
<path fill="none" stroke="black" d="M12.5,-195C12.5,-171.889 12.5,-166.111 12.5,-143"/>
</g>
<!-- node_2 -->
<g id="node2" class="node"><title>node_2</title>
<path fill="none" stroke="black" d="M211,-196C211,-196 334,-196 334,-196 340,-196 346,-202 346,-208 346,-208 346,-220 346,-220 346,-226 340,-232 334,-232 334,-232 211,-232 211,-232 205,-232 199,-226 199,-220 199,-220 199,-208 199,-208 199,-202 205,-196 211,-196"/>
<text text-anchor="middle" x="209" y="-210.3" font-family="Times New Roman,serif" font-size="14.00"> </text>
<polyline fill="none" stroke="black" points="219,-196 219,-232 "/>
<text text-anchor="middle" x="282.5" y="-210.3" font-family="Times New Roman,serif" font-size="14.00">something.whatever</text>
</g>
<!-- file_1 -->
<g id="node16" class="node"><title>file_1</title>
<path fill="none" stroke="black" d="M208,-73.5C208,-73.5 357,-73.5 357,-73.5 363,-73.5 369,-79.5 369,-85.5 369,-85.5 369,-130.5 369,-130.5 369,-136.5 363,-142.5 357,-142.5 357,-142.5 208,-142.5 208,-142.5 202,-142.5 196,-136.5 196,-130.5 196,-130.5 196,-85.5 196,-85.5 196,-79.5 202,-73.5 208,-73.5"/>
<text text-anchor="middle" x="209" y="-104.3" font-family="Times New Roman,serif" font-size="14.00">R</text>
<polyline fill="none" stroke="black" points="222,-73.5 222,-142.5 "/>
<text text-anchor="middle" x="282.5" y="-104.3" font-family="Times New Roman,serif" font-size="14.00">complex&#45;select.sql</text>
<polyline fill="none" stroke="black" points="343,-73.5 343,-142.5 "/>
<text text-anchor="middle" x="356" y="-127.3" font-family="Times New Roman,serif" font-size="14.00">C</text>
<polyline fill="none" stroke="black" points="343,-119.5 369,-119.5 "/>
<text text-anchor="middle" x="356" y="-104.3" font-family="Times New Roman,serif" font-size="14.00">U</text>
<polyline fill="none" stroke="black" points="343,-96.5 369,-96.5 "/>
<text text-anchor="middle" x="356" y="-81.3" font-family="Times New Roman,serif" font-size="14.00">D</text>
</g>
<!-- node_2&#45;&#45;file_1 -->
<g id="edge2" class="edge"><title>node_2:io&#45;&#45;file_1:r</title>
<path fill="none" stroke="black" d="M208.5,-195C208.5,-171.889 208.5,-166.111 208.5,-143"/>
</g>
<!-- node_3 -->
<g id="node3" class="node"><title>node_3</title>
<path fill="none" stroke="black" d="M540,-90C540,-90 627,-90 627,-90 633,-90 639,-96 639,-102 639,-102 639,-114 639,-114 639,-120 633,-126 627,-126 627,-126 540,-126 540,-126 534,-126 528,-120 528,-114 528,-114 528,-102 528,-102 528,-96 534,-90 540,-90"/>
<text text-anchor="middle" x="538" y="-104.3" font-family="Times New Roman,serif" font-size="14.00"> </text>
<polyline fill="none" stroke="black" points="548,-90 548,-126 "/>
<text text-anchor="middle" x="593.5" y="-104.3" font-family="Times New Roman,serif" font-size="14.00">dbo.do_stuff</text>
</g>
<!-- node_4 -->
<g id="node4" class="node"><title>node_4</title>
<path fill="none" stroke="black" d="M801.5,-0.5C801.5,-0.5 889.5,-0.5 889.5,-0.5 895.5,-0.5 901.5,-6.5 901.5,-12.5 901.5,-12.5 901.5,-24.5 901.5,-24.5 901.5,-30.5 895.5,-36.5 889.5,-36.5 889.5,-36.5 801.5,-36.5 801.5,-36.5 795.5,-36.5 789.5,-30.5 789.5,-24.5 789.5,-24.5 789.5,-12.5 789.5,-12.5 789.5,-6.5 795.5,-0.5 801.5,-0.5"/>
<text text-anchor="middle" x="799.5" y="-14.8" font-family="Times New Roman,serif" font-size="14.00"> </text>
<polyline fill="none" stroke="black" points="809.5,-0.5 809.5,-36.5 "/>
<text text-anchor="middle" x="855.5" y="-14.8" font-family="Times New Roman,serif" font-size="14.00">dbo.whatever</text>
</g>
<!-- node_5 -->
<g id="node5" class="node"><title>node_5</title>
<path fill="none" stroke="black" d="M615.5,-196C615.5,-196 685.5,-196 685.5,-196 691.5,-196 697.5,-202 697.5,-208 697.5,-208 697.5,-220 697.5,-220 697.5,-226 691.5,-232 685.5,-232 685.5,-232 615.5,-232 615.5,-232 609.5,-232 603.5,-226 603.5,-220 603.5,-220 603.5,-208 603.5,-208 603.5,-202 609.5,-196 615.5,-196"/>
<text text-anchor="middle" x="613.5" y="-210.3" font-family="Times New Roman,serif" font-size="14.00"> </text>
<polyline fill="none" stroke="black" points="623.5,-196 623.5,-232 "/>
<text text-anchor="middle" x="660.5" y="-210.3" font-family="Times New Roman,serif" font-size="14.00">something</text>
</g>
<!-- file_3 -->
<g id="node18" class="node"><title>file_3</title>
<path fill="none" stroke="black" d="M669,-73.5C669,-73.5 804,-73.5 804,-73.5 810,-73.5 816,-79.5 816,-85.5 816,-85.5 816,-130.5 816,-130.5 816,-136.5 810,-142.5 804,-142.5 804,-142.5 669,-142.5 669,-142.5 663,-142.5 657,-136.5 657,-130.5 657,-130.5 657,-85.5 657,-85.5 657,-79.5 663,-73.5 669,-73.5"/>
<text text-anchor="middle" x="670" y="-104.3" font-family="Times New Roman,serif" font-size="14.00">R</text>
<polyline fill="none" stroke="black" points="683,-73.5 683,-142.5 "/>
<text text-anchor="middle" x="736.5" y="-104.3" font-family="Times New Roman,serif" font-size="14.00">kitchen_sink.sql</text>
<polyline fill="none" stroke="black" points="790,-73.5 790,-142.5 "/>
<text text-anchor="middle" x="803" y="-127.3" font-family="Times New Roman,serif" font-size="14.00">C</text>
<polyline fill="none" stroke="black" points="790,-119.5 816,-119.5 "/>
<text text-anchor="middle" x="803" y="-104.3" font-family="Times New Roman,serif" font-size="14.00">U</text>
<polyline fill="none" stroke="black" points="790,-96.5 816,-96.5 "/>
<text text-anchor="middle" x="803" y="-81.3" font-family="Times New Roman,serif" font-size="14.00">D</text>
</g>
<!-- node_5&#45;&#45;file_3 -->
<g id="edge4" class="edge"><title>node_5:io&#45;&#45;file_3:r</title>
<path fill="none" stroke="black" d="M613.5,-195C613.5,-161.036 669.5,-176.964 669.5,-143"/>
</g>
<!-- node_6 -->
<g id="node6" class="node"><title>node_6</title>
<path fill="none" stroke="black" d="M728,-196C728,-196 795,-196 795,-196 801,-196 807,-202 807,-208 807,-208 807,-220 807,-220 807,-226 801,-232 795,-232 795,-232 728,-232 728,-232 722,-232 716,-226 716,-220 716,-220 716,-208 716,-208 716,-202 722,-196 728,-196"/>
<text text-anchor="middle" x="726" y="-210.3" font-family="Times New Roman,serif" font-size="14.00"> </text>
<polyline fill="none" stroke="black" points="736,-196 736,-232 "/>
<text text-anchor="middle" x="771.5" y="-210.3" font-family="Times New Roman,serif" font-size="14.00">dbo.other</text>
</g>
<!-- node_6&#45;&#45;file_3 -->
<g id="edge5" class="edge"><title>node_6:io&#45;&#45;file_3:r</title>
<path fill="none" stroke="black" d="M725.5,-195C725.5,-161.036 669.5,-176.964 669.5,-143"/>
</g>
<!-- node_7 -->
<g id="node7" class="node"><title>node_7</title>
<path fill="none" stroke="black" d="M674.5,-0.5C674.5,-0.5 752.5,-0.5 752.5,-0.5 758.5,-0.5 764.5,-6.5 764.5,-12.5 764.5,-12.5 764.5,-24.5 764.5,-24.5 764.5,-30.5 758.5,-36.5 752.5,-36.5 752.5,-36.5 674.5,-36.5 674.5,-36.5 668.5,-36.5 662.5,-30.5 662.5,-24.5 662.5,-24.5 662.5,-12.5 662.5,-12.5 662.5,-6.5 668.5,-0.5 674.5,-0.5"/>
<text text-anchor="middle" x="672.5" y="-14.8" font-family="Times New Roman,serif" font-size="14.00"> </text>
<polyline fill="none" stroke="black" points="682.5,-0.5 682.5,-36.5 "/>
<text text-anchor="middle" x="723.5" y="-14.8" font-family="Times New Roman,serif" font-size="14.00">[sometable]</text>
</g>
<!-- node_7&#45;&#45;file_3 -->
<g id="edge6" class="edge"><title>node_7:io&#45;&#45;file_3:r</title>
<path fill="none" stroke="black" d="M672.5,-37C672.5,-53.0555 669.5,-56.9445 669.5,-73"/>
</g>
<!-- node_8 -->
<g id="node8" class="node"><title>node_8</title>
<path fill="none" stroke="black" d="M931.5,-0.5C931.5,-0.5 961.5,-0.5 961.5,-0.5 967.5,-0.5 973.5,-6.5 973.5,-12.5 973.5,-12.5 973.5,-24.5 973.5,-24.5 973.5,-30.5 967.5,-36.5 961.5,-36.5 961.5,-36.5 931.5,-36.5 931.5,-36.5 925.5,-36.5 919.5,-30.5 919.5,-24.5 919.5,-24.5 919.5,-12.5 919.5,-12.5 919.5,-6.5 925.5,-0.5 931.5,-0.5"/>
<text text-anchor="middle" x="930.5" y="-14.8" font-family="Times New Roman,serif" font-size="14.00"> </text>
<polyline fill="none" stroke="black" points="941.5,-0.5 941.5,-36.5 "/>
<text text-anchor="middle" x="957.5" y="-14.8" font-family="Times New Roman,serif" font-size="14.00">ex</text>
</g>
<!-- node_9 -->
<g id="node9" class="node"><title>node_9</title>
<path fill="none" stroke="black" d="M871,-196C871,-196 942,-196 942,-196 948,-196 954,-202 954,-208 954,-208 954,-220 954,-220 954,-226 948,-232 942,-232 942,-232 871,-232 871,-232 865,-232 859,-226 859,-220 859,-220 859,-208 859,-208 859,-202 865,-196 871,-196"/>
<text text-anchor="middle" x="869" y="-210.3" font-family="Times New Roman,serif" font-size="14.00"> </text>
<polyline fill="none" stroke="black" points="879,-196 879,-232 "/>
<text text-anchor="middle" x="916.5" y="-210.3" font-family="Times New Roman,serif" font-size="14.00">[fizz].buzz</text>
</g>
<!-- file_5 -->
<g id="node20" class="node"><title>file_5</title>
<path fill="none" stroke="black" d="M868,-73.5C868,-73.5 1027,-73.5 1027,-73.5 1033,-73.5 1039,-79.5 1039,-85.5 1039,-85.5 1039,-130.5 1039,-130.5 1039,-136.5 1033,-142.5 1027,-142.5 1027,-142.5 868,-142.5 868,-142.5 862,-142.5 856,-136.5 856,-130.5 856,-130.5 856,-85.5 856,-85.5 856,-79.5 862,-73.5 868,-73.5"/>
<text text-anchor="middle" x="869" y="-104.3" font-family="Times New Roman,serif" font-size="14.00">R</text>
<polyline fill="none" stroke="black" points="882,-73.5 882,-142.5 "/>
<text text-anchor="middle" x="947.5" y="-104.3" font-family="Times New Roman,serif" font-size="14.00">quoted_identifier.sql</text>
<polyline fill="none" stroke="black" points="1013,-73.5 1013,-142.5 "/>
<text text-anchor="middle" x="1026" y="-127.3" font-family="Times New Roman,serif" font-size="14.00">C</text>
<polyline fill="none" stroke="black" points="1013,-119.5 1039,-119.5 "/>
<text text-anchor="middle" x="1026" y="-104.3" font-family="Times New Roman,serif" font-size="14.00">U</text>
<polyline fill="none" stroke="black" points="1013,-96.5 1039,-96.5 "/>
<text text-anchor="middle" x="1026" y="-81.3" font-family="Times New Roman,serif" font-size="14.00">D</text>
</g>
<!-- node_9&#45;&#45;file_5 -->
<g id="edge10" class="edge"><title>node_9:io&#45;&#45;file_5:r</title>
<path fill="none" stroke="black" d="M868.5,-195C868.5,-171.889 868.5,-166.111 868.5,-143"/>
</g>
<!-- node_10 -->
<g id="node10" class="node"><title>node_10</title>
<path fill="none" stroke="black" d="M984,-196C984,-196 1053,-196 1053,-196 1059,-196 1065,-202 1065,-208 1065,-208 1065,-220 1065,-220 1065,-226 1059,-232 1053,-232 1053,-232 984,-232 984,-232 978,-232 972,-226 972,-220 972,-220 972,-208 972,-208 972,-202 978,-196 984,-196"/>
<text text-anchor="middle" x="982" y="-210.3" font-family="Times New Roman,serif" font-size="14.00"> </text>
<polyline fill="none" stroke="black" points="992,-196 992,-232 "/>
<text text-anchor="middle" x="1028.5" y="-210.3" font-family="Times New Roman,serif" font-size="14.00">sometable</text>
</g>
<!-- file_6 -->
<g id="node21" class="node"><title>file_6</title>
<path fill="none" stroke="black" d="M1092,-73.5C1092,-73.5 1247,-73.5 1247,-73.5 1253,-73.5 1259,-79.5 1259,-85.5 1259,-85.5 1259,-130.5 1259,-130.5 1259,-136.5 1253,-142.5 1247,-142.5 1247,-142.5 1092,-142.5 1092,-142.5 1086,-142.5 1080,-136.5 1080,-130.5 1080,-130.5 1080,-85.5 1080,-85.5 1080,-79.5 1086,-73.5 1092,-73.5"/>
<text text-anchor="middle" x="1093" y="-104.3" font-family="Times New Roman,serif" font-size="14.00">R</text>
<polyline fill="none" stroke="black" points="1106,-73.5 1106,-142.5 "/>
<text text-anchor="middle" x="1169.5" y="-104.3" font-family="Times New Roman,serif" font-size="14.00">select_with_join.sql</text>
<polyline fill="none" stroke="black" points="1233,-73.5 1233,-142.5 "/>
<text text-anchor="middle" x="1246" y="-127.3" font-family="Times New Roman,serif" font-size="14.00">C</text>
<polyline fill="none" stroke="black" points="1233,-119.5 1259,-119.5 "/>
<text text-anchor="middle" x="1246" y="-104.3" font-family="Times New Roman,serif" font-size="14.00">U</text>
<polyline fill="none" stroke="black" points="1233,-96.5 1259,-96.5 "/>
<text text-anchor="middle" x="1246" y="-81.3" font-family="Times New Roman,serif" font-size="14.00">D</text>
</g>
<!-- node_10&#45;&#45;file_6 -->
<g id="edge11" class="edge"><title>node_10:io&#45;&#45;file_6:r</title>
<path fill="none" stroke="black" d="M981.5,-195C981.5,-140.522 1092.5,-197.478 1092.5,-143"/>
</g>
<!-- node_11 -->
<g id="node11" class="node"><title>node_11</title>
<path fill="none" stroke="black" d="M1095,-196C1095,-196 1162,-196 1162,-196 1168,-196 1174,-202 1174,-208 1174,-208 1174,-220 1174,-220 1174,-226 1168,-232 1162,-232 1162,-232 1095,-232 1095,-232 1089,-232 1083,-226 1083,-220 1083,-220 1083,-208 1083,-208 1083,-202 1089,-196 1095,-196"/>
<text text-anchor="middle" x="1093" y="-210.3" font-family="Times New Roman,serif" font-size="14.00"> </text>
<polyline fill="none" stroke="black" points="1103,-196 1103,-232 "/>
<text text-anchor="middle" x="1138.5" y="-210.3" font-family="Times New Roman,serif" font-size="14.00">othertable</text>
</g>
<!-- node_11&#45;&#45;file_6 -->
<g id="edge12" class="edge"><title>node_11:io&#45;&#45;file_6:r</title>
<path fill="none" stroke="black" d="M1092.5,-195C1092.5,-171.889 1092.5,-166.111 1092.5,-143"/>
</g>
<!-- node_12 -->
<g id="node12" class="node"><title>node_12</title>
<path fill="none" stroke="black" d="M1204.5,-196C1204.5,-196 1258.5,-196 1258.5,-196 1264.5,-196 1270.5,-202 1270.5,-208 1270.5,-208 1270.5,-220 1270.5,-220 1270.5,-226 1264.5,-232 1258.5,-232 1258.5,-232 1204.5,-232 1204.5,-232 1198.5,-232 1192.5,-226 1192.5,-220 1192.5,-220 1192.5,-208 1192.5,-208 1192.5,-202 1198.5,-196 1204.5,-196"/>
<text text-anchor="middle" x="1202.5" y="-210.3" font-family="Times New Roman,serif" font-size="14.00"> </text>
<polyline fill="none" stroke="black" points="1212.5,-196 1212.5,-232 "/>
<text text-anchor="middle" x="1241.5" y="-210.3" font-family="Times New Roman,serif" font-size="14.00">another</text>
</g>
<!-- node_12&#45;&#45;file_6 -->
<g id="edge13" class="edge"><title>node_12:io&#45;&#45;file_6:r</title>
<path fill="none" stroke="black" d="M1202.5,-195C1202.5,-140.924 1092.5,-197.076 1092.5,-143"/>
</g>
<!-- node_13 -->
<g id="node13" class="node"><title>node_13</title>
<path fill="none" stroke="black" d="M1395,-0.5C1395,-0.5 1498,-0.5 1498,-0.5 1504,-0.5 1510,-6.5 1510,-12.5 1510,-12.5 1510,-24.5 1510,-24.5 1510,-30.5 1504,-36.5 1498,-36.5 1498,-36.5 1395,-36.5 1395,-36.5 1389,-36.5 1383,-30.5 1383,-24.5 1383,-24.5 1383,-12.5 1383,-12.5 1383,-6.5 1389,-0.5 1395,-0.5"/>
<text text-anchor="middle" x="1393" y="-14.8" font-family="Times New Roman,serif" font-size="14.00"> </text>
<polyline fill="none" stroke="black" points="1403,-0.5 1403,-36.5 "/>
<text text-anchor="middle" x="1456.5" y="-14.8" font-family="Times New Roman,serif" font-size="14.00">dbo.some_thing</text>
</g>
<!-- node_14 -->
<g id="node14" class="node"><title>node_14</title>
<path fill="none" stroke="black" d="M1300.5,-196C1300.5,-196 1406.5,-196 1406.5,-196 1412.5,-196 1418.5,-202 1418.5,-208 1418.5,-208 1418.5,-220 1418.5,-220 1418.5,-226 1412.5,-232 1406.5,-232 1406.5,-232 1300.5,-232 1300.5,-232 1294.5,-232 1288.5,-226 1288.5,-220 1288.5,-220 1288.5,-208 1288.5,-208 1288.5,-202 1294.5,-196 1300.5,-196"/>
<text text-anchor="middle" x="1298.5" y="-210.3" font-family="Times New Roman,serif" font-size="14.00"> </text>
<polyline fill="none" stroke="black" points="1308.5,-196 1308.5,-232 "/>
<text text-anchor="middle" x="1363.5" y="-210.3" font-family="Times New Roman,serif" font-size="14.00">dbo.somesource</text>
</g>
<!-- file_7 -->
<g id="node22" class="node"><title>file_7</title>
<path fill="none" stroke="black" d="M1297.5,-73.5C1297.5,-73.5 1393.5,-73.5 1393.5,-73.5 1399.5,-73.5 1405.5,-79.5 1405.5,-85.5 1405.5,-85.5 1405.5,-130.5 1405.5,-130.5 1405.5,-136.5 1399.5,-142.5 1393.5,-142.5 1393.5,-142.5 1297.5,-142.5 1297.5,-142.5 1291.5,-142.5 1285.5,-136.5 1285.5,-130.5 1285.5,-130.5 1285.5,-85.5 1285.5,-85.5 1285.5,-79.5 1291.5,-73.5 1297.5,-73.5"/>
<text text-anchor="middle" x="1298.5" y="-104.3" font-family="Times New Roman,serif" font-size="14.00">R</text>
<polyline fill="none" stroke="black" points="1311.5,-73.5 1311.5,-142.5 "/>
<text text-anchor="middle" x="1345.5" y="-104.3" font-family="Times New Roman,serif" font-size="14.00">views.sql</text>
<polyline fill="none" stroke="black" points="1379.5,-73.5 1379.5,-142.5 "/>
<text text-anchor="middle" x="1392.5" y="-127.3" font-family="Times New Roman,serif" font-size="14.00">C</text>
<polyline fill="none" stroke="black" points="1379.5,-119.5 1405.5,-119.5 "/>
<text text-anchor="middle" x="1392.5" y="-104.3" font-family="Times New Roman,serif" font-size="14.00">U</text>
<polyline fill="none" stroke="black" points="1379.5,-96.5 1405.5,-96.5 "/>
<text text-anchor="middle" x="1392.5" y="-81.3" font-family="Times New Roman,serif" font-size="14.00">D</text>
</g>
<!-- node_14&#45;&#45;file_7 -->
<g id="edge14" class="edge"><title>node_14:io&#45;&#45;file_7:r</title>
<path fill="none" stroke="black" d="M1298.5,-195C1298.5,-171.889 1298.5,-166.111 1298.5,-143"/>
</g>
<!-- file_2 -->
<g id="node17" class="node"><title>file_2</title>
<path fill="none" stroke="black" d="M376.5,-179.5C376.5,-179.5 538.5,-179.5 538.5,-179.5 544.5,-179.5 550.5,-185.5 550.5,-191.5 550.5,-191.5 550.5,-236.5 550.5,-236.5 550.5,-242.5 544.5,-248.5 538.5,-248.5 538.5,-248.5 376.5,-248.5 376.5,-248.5 370.5,-248.5 364.5,-242.5 364.5,-236.5 364.5,-236.5 364.5,-191.5 364.5,-191.5 364.5,-185.5 370.5,-179.5 376.5,-179.5"/>
<text text-anchor="middle" x="377.5" y="-210.3" font-family="Times New Roman,serif" font-size="14.00">R</text>
<polyline fill="none" stroke="black" points="390.5,-179.5 390.5,-248.5 "/>
<text text-anchor="middle" x="457.5" y="-210.3" font-family="Times New Roman,serif" font-size="14.00">create_procedure.sql</text>
<polyline fill="none" stroke="black" points="524.5,-179.5 524.5,-248.5 "/>
<text text-anchor="middle" x="537.5" y="-233.3" font-family="Times New Roman,serif" font-size="14.00">C</text>
<polyline fill="none" stroke="black" points="524.5,-225.5 550.5,-225.5 "/>
<text text-anchor="middle" x="537.5" y="-210.3" font-family="Times New Roman,serif" font-size="14.00">U</text>
<polyline fill="none" stroke="black" points="524.5,-202.5 550.5,-202.5 "/>
<text text-anchor="middle" x="537.5" y="-187.3" font-family="Times New Roman,serif" font-size="14.00">D</text>
</g>
<!-- file_2&#45;&#45;node_3 -->
<g id="edge3" class="edge"><title>file_2:c&#45;&#45;node_3:io</title>
<path fill="none" stroke="black" d="M551.5,-237C600.783,-237 537.5,-176.283 537.5,-127"/>
</g>
<!-- file_3&#45;&#45;node_4 -->
<g id="edge7" class="edge"><title>file_3:c&#45;&#45;node_4:io</title>
<path fill="none" stroke="black" d="M817.5,-131C843.282,-131 822.358,-98.1073 816.5,-73 812.48,-55.7685 799.5,-54.6942 799.5,-37"/>
</g>
<!-- file_3&#45;&#45;node_7 -->
<g id="edge8" class="edge"><title>file_3:u&#45;&#45;node_7:io</title>
<path fill="none" stroke="black" d="M817.5,-108C833.062,-108 826.251,-85.128 816.5,-73 775.163,-21.5874 672.5,-102.97 672.5,-37"/>
</g>
<!-- file_3&#45;&#45;node_8 -->
<g id="edge9" class="edge"><title>file_3:u&#45;&#45;node_8:io</title>
<path fill="none" stroke="black" d="M817.5,-108C837.701,-108 830.992,-85.9465 846.5,-73 871.553,-52.0848 888.657,-61.2478 910.5,-37 916.496,-30.3443 909.542,-18.5 918.5,-18.5"/>
</g>
<!-- file_4 -->
<g id="node19" class="node"><title>file_4</title>
<path fill="none" stroke="black" d="M1449,-179.5C1449,-179.5 1546,-179.5 1546,-179.5 1552,-179.5 1558,-185.5 1558,-191.5 1558,-191.5 1558,-236.5 1558,-236.5 1558,-242.5 1552,-248.5 1546,-248.5 1546,-248.5 1449,-248.5 1449,-248.5 1443,-248.5 1437,-242.5 1437,-236.5 1437,-236.5 1437,-191.5 1437,-191.5 1437,-185.5 1443,-179.5 1449,-179.5"/>
<text text-anchor="middle" x="1450" y="-210.3" font-family="Times New Roman,serif" font-size="14.00">R</text>
<polyline fill="none" stroke="black" points="1463,-179.5 1463,-248.5 "/>
<text text-anchor="middle" x="1497.5" y="-210.3" font-family="Times New Roman,serif" font-size="14.00">locals.sql</text>
<polyline fill="none" stroke="black" points="1532,-179.5 1532,-248.5 "/>
<text text-anchor="middle" x="1545" y="-233.3" font-family="Times New Roman,serif" font-size="14.00">C</text>
<polyline fill="none" stroke="black" points="1532,-225.5 1558,-225.5 "/>
<text text-anchor="middle" x="1545" y="-210.3" font-family="Times New Roman,serif" font-size="14.00">U</text>
<polyline fill="none" stroke="black" points="1532,-202.5 1558,-202.5 "/>
<text text-anchor="middle" x="1545" y="-187.3" font-family="Times New Roman,serif" font-size="14.00">D</text>
</g>
<!-- file_7&#45;&#45;node_13 -->
<g id="edge15" class="edge"><title>file_7:c&#45;&#45;node_13:io</title>
<path fill="none" stroke="black" d="M1406.5,-131C1432.28,-131 1410.16,-98.3563 1405.5,-73 1402.42,-56.2694 1392.5,-54.0113 1392.5,-37"/>
</g>
</g>
</svg>
