<?xml version="1.0" encoding="UTF-8" standalone="no"?>
<!DOCTYPE svg PUBLIC "-//W3C//DTD SVG 1.1//EN"
 "http://www.w3.org/Graphics/SVG/1.1/DTD/svg11.dtd">
<!-- Generated by graphviz version 2.38.0 (20140413.2041)
 -->
<!-- Title: g Pages: 1 -->
<svg width="500pt" height="926pt"
 viewBox="0.00 0.00 500.00 926.00" xmlns="http://www.w3.org/2000/svg" xmlns:xlink="http://www.w3.org/1999/xlink">
<g id="graph0" class="graph" transform="scale(1 1) rotate(0) translate(4 922)">
<title>g</title>
<polygon fill="white" stroke="none" points="-4,4 -4,-922 496,-922 496,4 -4,4"/>
<!-- n1 -->
<g id="node1" class="node"><title>n1</title>
<polygon fill="#d0d0d0" stroke="white" points="173,-54 0,-54 0,-0 173,-0 173,-54"/>
<text text-anchor="middle" x="86.5" y="-23.3" font-family="Helvetica,sans-Serif" font-size="14.00">someschema.sometable</text>
</g>
<!-- f0 -->
<g id="node13" class="node"><title>f0</title>
<polygon fill="dodgerblue" stroke="white" points="329.5,-48 222.5,-48 222.5,-6 329.5,-6 341.5,-27 329.5,-48"/>
<text text-anchor="middle" x="282" y="-23.3" font-family="Helvetica,sans-Serif" font-size="14.00" fill="white">basic_select.sql</text>
</g>
<!-- n1&#45;&gt;f0 -->
<g id="edge1" class="edge"><title>n1:e&#45;&gt;f0:w</title>
<path fill="none" stroke="cyan" stroke-width="2" d="M173,-27C190.5,-27 197.233,-27 210.864,-27"/>
<polygon fill="cyan" stroke="cyan" stroke-width="2" points="211,-30.5001 221,-27 211,-23.5001 211,-30.5001"/>
</g>
<!-- n2 -->
<g id="node2" class="node"><title>n2</title>
<polygon fill="#d0d0d0" stroke="white" points="158,-126 15,-126 15,-72 158,-72 158,-126"/>
<text text-anchor="middle" x="86.5" y="-95.3" font-family="Helvetica,sans-Serif" font-size="14.00">something.whatever</text>
</g>
<!-- f1 -->
<g id="node14" class="node"><title>f1</title>
<polygon fill="dodgerblue" stroke="white" points="338,-120 214,-120 214,-78 338,-78 350,-99 338,-120"/>
<text text-anchor="middle" x="282" y="-95.3" font-family="Helvetica,sans-Serif" font-size="14.00" fill="white">complex&#45;select.sql</text>
</g>
<!-- n2&#45;&gt;f1 -->
<g id="edge2" class="edge"><title>n2:e&#45;&gt;f1:w</title>
<path fill="none" stroke="cyan" stroke-width="2" d="M159.5,-99C179.377,-99 186.792,-99 202.579,-99"/>
<polygon fill="cyan" stroke="cyan" stroke-width="2" points="203,-102.5 213,-99 203,-95.5001 203,-102.5"/>
</g>
<!-- n3 -->
<g id="node3" class="node"><title>n3</title>
<polygon fill="#d0d0d0" stroke="white" points="128,-342 45,-342 45,-288 128,-288 128,-342"/>
<text text-anchor="middle" x="86.5" y="-311.3" font-family="Helvetica,sans-Serif" font-size="14.00">sometable</text>
</g>
<!-- f3 -->
<g id="node16" class="node"><title>f3</title>
<polygon fill="dodgerblue" stroke="white" points="328,-336 224,-336 224,-294 328,-294 340,-315 328,-336"/>
<text text-anchor="middle" x="282" y="-311.3" font-family="Helvetica,sans-Serif" font-size="14.00" fill="white">kitchen_sink.sql</text>
</g>
<!-- n3&#45;&gt;f3 -->
<g id="edge5" class="edge"><title>n3:e&#45;&gt;f3:w</title>
<path fill="none" stroke="cyan" stroke-width="2" d="M129.5,-315C167.484,-315 179.429,-315 212.937,-315"/>
<polygon fill="cyan" stroke="cyan" stroke-width="2" points="213,-318.5 223,-315 213,-311.5 213,-318.5"/>
</g>
<!-- f7 -->
<g id="node20" class="node"><title>f7</title>
<polygon fill="dodgerblue" stroke="white" points="340,-264 212,-264 212,-222 340,-222 352,-243 340,-264"/>
<text text-anchor="middle" x="282" y="-239.3" font-family="Helvetica,sans-Serif" font-size="14.00" fill="white">select_with_join.sql</text>
</g>
<!-- n3&#45;&gt;f7 -->
<g id="edge12" class="edge"><title>n3:e&#45;&gt;f7:w</title>
<path fill="none" stroke="cyan" stroke-width="2" d="M129.5,-315C154.595,-315 154.214,-295.639 173,-279 187.422,-266.226 188.063,-249.921 201.07,-244.693"/>
<polygon fill="cyan" stroke="cyan" stroke-width="2" points="201.73,-248.131 211,-243 200.554,-241.23 201.73,-248.131"/>
</g>
<!-- n4 -->
<g id="node4" class="node"><title>n4</title>
<polygon fill="#d0d0d0" stroke="white" points="492,-342 391,-342 391,-288 492,-288 492,-342"/>
<text text-anchor="middle" x="441.5" y="-311.3" font-family="Helvetica,sans-Serif" font-size="14.00">dbo.whatever</text>
</g>
<!-- n5 -->
<g id="node5" class="node"><title>n5</title>
<polygon fill="#d0d0d0" stroke="white" points="128,-486 45,-486 45,-432 128,-432 128,-486"/>
<text text-anchor="middle" x="86.5" y="-455.3" font-family="Helvetica,sans-Serif" font-size="14.00">something</text>
</g>
<!-- n5&#45;&gt;f3 -->
<g id="edge3" class="edge"><title>n5:e&#45;&gt;f3:w</title>
<path fill="none" stroke="cyan" stroke-width="2" d="M129.5,-459C154.595,-459 157.683,-442.879 173,-423 202.889,-384.211 174.956,-324.679 212.615,-316.055"/>
<polygon fill="cyan" stroke="cyan" stroke-width="2" points="213.405,-319.493 223,-315 212.697,-312.529 213.405,-319.493"/>
</g>
<!-- n6 -->
<g id="node6" class="node"><title>n6</title>
<polygon fill="#d0d0d0" stroke="white" points="125,-414 48,-414 48,-360 125,-360 125,-414"/>
<text text-anchor="middle" x="86.5" y="-383.3" font-family="Helvetica,sans-Serif" font-size="14.00">dbo.other</text>
</g>
<!-- n6&#45;&gt;f3 -->
<g id="edge4" class="edge"><title>n6:e&#45;&gt;f3:w</title>
<path fill="none" stroke="cyan" stroke-width="2" d="M126.5,-387C176.353,-387 170.628,-324.507 212.883,-315.963"/>
<polygon fill="cyan" stroke="cyan" stroke-width="2" points="213.377,-319.432 223,-315 212.713,-312.464 213.377,-319.432"/>
</g>
<!-- n7 -->
<g id="node7" class="node"><title>n7</title>
<polygon fill="#d0d0d0" stroke="white" points="134.5,-630 38.5,-630 38.5,-576 134.5,-576 134.5,-630"/>
<text text-anchor="middle" x="86.5" y="-599.3" font-family="Helvetica,sans-Serif" font-size="14.00">departments</text>
</g>
<!-- f4 -->
<g id="node17" class="node"><title>f4</title>
<polygon fill="dodgerblue" stroke="white" points="331.5,-588 220.5,-588 220.5,-546 331.5,-546 343.5,-567 331.5,-588"/>
<text text-anchor="middle" x="282" y="-563.3" font-family="Helvetica,sans-Serif" font-size="14.00" fill="white">lateral_tables.sql</text>
</g>
<!-- n7&#45;&gt;f4 -->
<g id="edge9" class="edge"><title>n7:e&#45;&gt;f4:w</title>
<path fill="none" stroke="cyan" stroke-width="2" d="M135.5,-603C172.282,-603 177.802,-573.178 208.967,-567.82"/>
<polygon fill="cyan" stroke="cyan" stroke-width="2" points="209.318,-571.303 219,-567 208.748,-564.326 209.318,-571.303"/>
</g>
<!-- n8 -->
<g id="node8" class="node"><title>n8</title>
<polygon fill="#d0d0d0" stroke="white" points="126.5,-558 46.5,-558 46.5,-504 126.5,-504 126.5,-558"/>
<text text-anchor="middle" x="86.5" y="-527.3" font-family="Helvetica,sans-Serif" font-size="14.00">personnel</text>
</g>
<!-- n8&#45;&gt;f4 -->
<g id="edge10" class="edge"><title>n8:e&#45;&gt;f4:w</title>
<path fill="none" stroke="cyan" stroke-width="2" d="M127.5,-531C167.616,-531 174.36,-561.336 209.001,-566.313"/>
<polygon fill="cyan" stroke="cyan" stroke-width="2" points="208.784,-569.806 219,-567 209.263,-562.823 208.784,-569.806"/>
</g>
<!-- n9 -->
<g id="node9" class="node"><title>n9</title>
<polygon fill="#d0d0d0" stroke="white" points="122,-702 51,-702 51,-648 122,-648 122,-702"/>
<text text-anchor="middle" x="86.5" y="-671.3" font-family="Helvetica,sans-Serif" font-size="14.00">fizz.buzz</text>
</g>
<!-- f6 -->
<g id="node19" class="node"><title>f6</title>
<polygon fill="dodgerblue" stroke="white" points="343,-696 209,-696 209,-654 343,-654 355,-675 343,-696"/>
<text text-anchor="middle" x="282" y="-671.3" font-family="Helvetica,sans-Serif" font-size="14.00" fill="white">quoted_identifier.sql</text>
</g>
<!-- n9&#45;&gt;f6 -->
<g id="edge11" class="edge"><title>n9:e&#45;&gt;f6:w</title>
<path fill="none" stroke="cyan" stroke-width="2" d="M123.5,-675C157.789,-675 168.873,-675 198.629,-675"/>
<polygon fill="cyan" stroke="cyan" stroke-width="2" points="199,-678.5 209,-675 199,-671.5 199,-678.5"/>
</g>
<!-- n10 -->
<g id="node10" class="node"><title>n10</title>
<polygon fill="#d0d0d0" stroke="white" points="126.5,-270 46.5,-270 46.5,-216 126.5,-216 126.5,-270"/>
<text text-anchor="middle" x="86.5" y="-239.3" font-family="Helvetica,sans-Serif" font-size="14.00">othertable</text>
</g>
<!-- n10&#45;&gt;f7 -->
<g id="edge13" class="edge"><title>n10:e&#45;&gt;f7:w</title>
<path fill="none" stroke="cyan" stroke-width="2" d="M127.5,-243C160.987,-243 171.811,-243 200.872,-243"/>
<polygon fill="cyan" stroke="cyan" stroke-width="2" points="201,-246.5 211,-243 201,-239.5 201,-246.5"/>
</g>
<!-- n11 -->
<g id="node11" class="node"><title>n11</title>
<polygon fill="#d0d0d0" stroke="white" points="118.5,-198 54.5,-198 54.5,-144 118.5,-144 118.5,-198"/>
<text text-anchor="middle" x="86.5" y="-167.3" font-family="Helvetica,sans-Serif" font-size="14.00">another</text>
</g>
<!-- n11&#45;&gt;f7 -->
<g id="edge14" class="edge"><title>n11:e&#45;&gt;f7:w</title>
<path fill="none" stroke="cyan" stroke-width="2" d="M119.5,-171C148.16,-171 150.631,-189.083 173,-207 188.037,-219.044 188.274,-235.829 201.124,-241.243"/>
<polygon fill="cyan" stroke="cyan" stroke-width="2" points="200.541,-244.694 211,-243 201.768,-237.802 200.541,-244.694"/>
</g>
<!-- n12 -->
<g id="node12" class="node"><title>n12</title>
<polygon fill="#d0d0d0" stroke="white" points="149,-774 24,-774 24,-720 149,-720 149,-774"/>
<text text-anchor="middle" x="86.5" y="-743.3" font-family="Helvetica,sans-Serif" font-size="14.00">dbo.somesource</text>
</g>
<!-- f8 -->
<g id="node21" class="node"><title>f8</title>
<polygon fill="dodgerblue" stroke="white" points="307,-768 245,-768 245,-726 307,-726 319,-747 307,-768"/>
<text text-anchor="middle" x="282" y="-743.3" font-family="Helvetica,sans-Serif" font-size="14.00" fill="white">views.sql</text>
</g>
<!-- n12&#45;&gt;f8 -->
<g id="edge15" class="edge"><title>n12:e&#45;&gt;f8:w</title>
<path fill="none" stroke="cyan" stroke-width="2" d="M150.5,-747C188.484,-747 200.429,-747 233.937,-747"/>
<polygon fill="cyan" stroke="cyan" stroke-width="2" points="234,-750.5 244,-747 234,-743.5 234,-750.5"/>
</g>
<!-- f2 -->
<g id="node15" class="node"><title>f2</title>
<polygon fill="dodgerblue" stroke="white" points="150.5,-840 10.5,-840 10.5,-798 150.5,-798 162.5,-819 150.5,-840"/>
<text text-anchor="middle" x="86.5" y="-815.3" font-family="Helvetica,sans-Serif" font-size="14.00" fill="white">create_procedure.sql</text>
</g>
<!-- f3&#45;&gt;n3 -->
<g id="edge6" class="edge"><title>f3:e&#45;&gt;n3:w</title>
<path fill="none" stroke="green" stroke-width="2" d="M341,-315C353.008,-306 348.647,-324.668 340,-333 328.179,-344.391 56.3212,-344.391 44.5,-333 41.8654,-330.461 39.6287,-326.963 38.1316,-323.58"/>
<polygon fill="green" stroke="green" stroke-width="2" points="41.1629,-325.334 43.5,-315 35.2287,-321.621 41.1629,-325.334"/>
</g>
<!-- f3&#45;&gt;n3 -->
<g id="edge8" class="edge"><title>f3:e&#45;&gt;n3:w</title>
<path fill="none" stroke="yellow" stroke-width="2" d="M341,-315C353.008,-324 348.647,-342.668 340,-351 328.179,-362.391 56.3212,-362.391 44.5,-351 38.0149,-344.751 33.9403,-332.688 37.3743,-323.25"/>
<polygon fill="yellow" stroke="yellow" stroke-width="2" points="40.3487,-325.115 43.5,-315 34.7285,-320.942 40.3487,-325.115"/>
</g>
<!-- f3&#45;&gt;n4 -->
<g id="edge7" class="edge"><title>f3:e&#45;&gt;n4:w</title>
<path fill="none" stroke="green" stroke-width="2" d="M341,-315C359.403,-315 366.376,-315 380.849,-315"/>
<polygon fill="green" stroke="green" stroke-width="2" points="381,-318.5 391,-315 381,-311.5 381,-318.5"/>
</g>
<!-- f5 -->
<g id="node18" class="node"><title>f5</title>
<polygon fill="dodgerblue" stroke="white" points="112.5,-912 48.5,-912 48.5,-870 112.5,-870 124.5,-891 112.5,-912"/>
<text text-anchor="middle" x="86.5" y="-887.3" font-family="Helvetica,sans-Serif" font-size="14.00" fill="white">locals.sql</text>
</g>
</g>
</svg>
