<?xml version="1.0" encoding="UTF-8" standalone="no"?>
<!DOCTYPE svg PUBLIC "-//W3C//DTD SVG 1.1//EN"
 "http://www.w3.org/Graphics/SVG/1.1/DTD/svg11.dtd">
<!-- Generated by graphviz version 2.38.0 (20140413.2041)
 -->
<!-- Title: g Pages: 1 -->
<svg width="419pt" height="190pt"
 viewBox="0.00 0.00 419.28 190.46" xmlns="http://www.w3.org/2000/svg" xmlns:xlink="http://www.w3.org/1999/xlink">
<g id="graph0" class="graph" transform="scale(1 1) rotate(0) translate(4 186.464)">
<title>g</title>
<polygon fill="white" stroke="none" points="-4,4 -4,-186.464 415.277,-186.464 415.277,4 -4,4"/>
<!-- n1 -->
<g id="node1" class="node"><title>n1</title>
<path fill="none" stroke="black" d="M18.2769,-110.5C18.2769,-110.5 76.2769,-110.5 76.2769,-110.5 82.2769,-110.5 88.2769,-116.5 88.2769,-122.5 88.2769,-122.5 88.2769,-134.5 88.2769,-134.5 88.2769,-140.5 82.2769,-146.5 76.2769,-146.5 76.2769,-146.5 18.2769,-146.5 18.2769,-146.5 12.2769,-146.5 6.27692,-140.5 6.27692,-134.5 6.27692,-134.5 6.27692,-122.5 6.27692,-122.5 6.27692,-116.5 12.2769,-110.5 18.2769,-110.5"/>
<text text-anchor="middle" x="47.2769" y="-124.8" font-family="Times New Roman,serif" font-size="14.00">[sometable]</text>
</g>
<!-- f0 -->
<g id="node5" class="node"><title>f0</title>
<polygon fill="none" stroke="black" points="271.277,-140.5 124.277,-140.5 124.277,-116.5 271.277,-116.5 283.277,-128.5 271.277,-140.5"/>
<text text-anchor="middle" x="203.777" y="-124.8" font-family="Times New Roman,serif" font-size="14.00">testmssqlkitchen_sink.sql</text>
</g>
<!-- n1&#45;&gt;f0 -->
<g id="edge3" class="edge"><title>n1:e&#45;&gt;f0:w</title>
<path fill="none" stroke="cyan" d="M88.2769,-128.5C100.277,-128.5 105.527,-128.5 114.152,-128.5"/>
<polygon fill="cyan" stroke="cyan" points="114.277,-132 124.277,-128.5 114.277,-125 114.277,-132"/>
</g>
<!-- n2 -->
<g id="node2" class="node"><title>n2</title>
<path fill="none" stroke="black" d="M331.277,-110.5C331.277,-110.5 399.277,-110.5 399.277,-110.5 405.277,-110.5 411.277,-116.5 411.277,-122.5 411.277,-122.5 411.277,-134.5 411.277,-134.5 411.277,-140.5 405.277,-146.5 399.277,-146.5 399.277,-146.5 331.277,-146.5 331.277,-146.5 325.277,-146.5 319.277,-140.5 319.277,-134.5 319.277,-134.5 319.277,-122.5 319.277,-122.5 319.277,-116.5 325.277,-110.5 331.277,-110.5"/>
<text text-anchor="middle" x="365.277" y="-124.8" font-family="Times New Roman,serif" font-size="14.00">dbo.whatever</text>
</g>
<!-- n3 -->
<g id="node3" class="node"><title>n3</title>
<path fill="none" stroke="black" d="M22.2769,-55.5C22.2769,-55.5 72.2769,-55.5 72.2769,-55.5 78.2769,-55.5 84.2769,-61.5 84.2769,-67.5 84.2769,-67.5 84.2769,-79.5 84.2769,-79.5 84.2769,-85.5 78.2769,-91.5 72.2769,-91.5 72.2769,-91.5 22.2769,-91.5 22.2769,-91.5 16.2769,-91.5 10.2769,-85.5 10.2769,-79.5 10.2769,-79.5 10.2769,-67.5 10.2769,-67.5 10.2769,-61.5 16.2769,-55.5 22.2769,-55.5"/>
<text text-anchor="middle" x="47.2769" y="-69.8" font-family="Times New Roman,serif" font-size="14.00">something</text>
</g>
<!-- n3&#45;&gt;f0 -->
<g id="edge1" class="edge"><title>n3:e&#45;&gt;f0:w</title>
<path fill="none" stroke="cyan" d="M85.2769,-73.5C111.029,-73.5 99.1914,-114.119 114.371,-125.543"/>
<polygon fill="cyan" stroke="cyan" points="113.694,-128.993 124.277,-128.5 115.696,-122.286 113.694,-128.993"/>
</g>
<!-- n4 -->
<g id="node4" class="node"><title>n4</title>
<path fill="none" stroke="black" d="M23.7769,-0.5C23.7769,-0.5 70.7769,-0.5 70.7769,-0.5 76.7769,-0.5 82.7769,-6.5 82.7769,-12.5 82.7769,-12.5 82.7769,-24.5 82.7769,-24.5 82.7769,-30.5 76.7769,-36.5 70.7769,-36.5 70.7769,-36.5 23.7769,-36.5 23.7769,-36.5 17.7769,-36.5 11.7769,-30.5 11.7769,-24.5 11.7769,-24.5 11.7769,-12.5 11.7769,-12.5 11.7769,-6.5 17.7769,-0.5 23.7769,-0.5"/>
<text text-anchor="middle" x="47.2769" y="-14.8" font-family="Times New Roman,serif" font-size="14.00">dbo.other</text>
</g>
<!-- n4&#45;&gt;f0 -->
<g id="edge2" class="edge"><title>n4:e&#45;&gt;f0:w</title>
<path fill="none" stroke="cyan" d="M84.2769,-18.5C132.234,-18.5 81.5542,-111.984 114.099,-126.591"/>
<polygon fill="cyan" stroke="cyan" points="113.803,-130.096 124.277,-128.5 115.094,-123.216 113.803,-130.096"/>
</g>
<!-- f0&#45;&gt;n1 -->
<g id="edge4" class="edge"><title>f0:e&#45;&gt;n1:w</title>
<path fill="none" stroke="green" d="M284.777,-128.5C292.789,-119.5 289.59,-131.986 283.777,-137.5 220.732,-197.292 175.166,-137.889 88.2769,-138 54.9644,-138.043 36.1441,-158.949 12.1867,-136.145"/>
<polygon fill="green" stroke="green" points="14.5789,-133.572 5.27692,-128.5 9.38579,-138.266 14.5789,-133.572"/>
</g>
<!-- f0&#45;&gt;n1 -->
<g id="edge6" class="edge"><title>f0:e&#45;&gt;n1:w</title>
<path fill="none" stroke="yellow" d="M284.777,-128.5C292.789,-137.5 289.59,-149.986 283.777,-155.5 220.732,-215.292 175.166,-155.889 88.2769,-156 51.8325,-156.047 32.7334,-181.065 6.27692,-156 2.16736,-152.107 -0.65617,-144.822 0.65617,-137.726"/>
<polygon fill="yellow" stroke="yellow" points="3.92797,-139.009 5.27692,-128.5 -2.33086,-135.874 3.92797,-139.009"/>
</g>
<!-- f0&#45;&gt;n2 -->
<g id="edge5" class="edge"><title>f0:e&#45;&gt;n2:w</title>
<path fill="none" stroke="green" d="M283.277,-128.5C295.277,-128.5 300.527,-128.5 309.152,-128.5"/>
<polygon fill="green" stroke="green" points="309.277,-132 319.277,-128.5 309.277,-125 309.277,-132"/>
</g>
</g>
</svg>
